<?xml version="1.0" encoding="UTF-8" standalone="no"?>
<!DOCTYPE svg PUBLIC "-//W3C//DTD SVG 1.1//EN"
 "http://www.w3.org/Graphics/SVG/1.1/DTD/svg11.dtd">
<!-- Generated by graphviz version 8.1.0 (20230707.0739)
 -->
<!-- Title: default Pages: 1 -->
<svg width="563pt" height="86pt"
 viewBox="0.00 0.00 563.25 85.75" xmlns="http://www.w3.org/2000/svg" xmlns:xlink="http://www.w3.org/1999/xlink">
<g id="graph0" class="graph" transform="scale(1 1) rotate(0) translate(4 81.75)">
<title>default</title>
<polygon fill="white" stroke="none" points="-4,4 -4,-81.75 559.25,-81.75 559.25,4 -4,4"/>
<!-- 0 -->
<g id="node1" class="node">
<title>0</title>
<polygon fill="none" stroke="black" points="237.62,-58.5 237.62,-77.75 250.12,-77.75 250.12,-58.5 237.62,-58.5"/>
<text text-anchor="start" x="241.62" y="-64.25" font-family="Times New Roman,serif" font-size="10.00">0</text>
<polygon fill="none" stroke="black" points="250.12,-58.5 250.12,-77.75 315.88,-77.75 315.88,-58.5 250.12,-58.5"/>
<text text-anchor="start" x="254.12" y="-64.25" font-family="Times New Roman,serif" font-size="10.00">ASTSequence</text>
</g>
<!-- 603 -->
<g id="node2" class="node">
<title>603</title>
<text text-anchor="middle" x="6.75" y="-1.75" font-family="Times New Roman,serif" font-size="10.00">603</text>
</g>
<!-- 0&#45;&#45;603 -->
<g id="edge1" class="edge">
<title>0&#45;&#45;603</title>
<path fill="none" stroke="black" d="M237.91,-67.74C193.12,-67.26 117.93,-62.72 57.75,-40.5 39,-33.58 20.29,-18.55 11.67,-11.06"/>
<text text-anchor="middle" x="62.25" y="-31" font-family="Times New Roman,serif" font-size="10.00">11</text>
</g>
<!-- 255 -->
<g id="node3" class="node">
<title>255</title>
<text text-anchor="middle" x="38.75" y="-1.75" font-family="Times New Roman,serif" font-size="10.00">255</text>
</g>
<!-- 0&#45;&#45;255 -->
<g id="edge2" class="edge">
<title>0&#45;&#45;255</title>
<path fill="none" stroke="black" d="M237.79,-66.22C199.63,-64.25 140.37,-58.28 92.25,-40.5 73.07,-33.41 53.52,-18.74 44.26,-11.25"/>
<text text-anchor="middle" x="95" y="-31" font-family="Times New Roman,serif" font-size="10.00">5</text>
</g>
<!-- 371 -->
<g id="node4" class="node">
<title>371</title>
<text text-anchor="middle" x="70.75" y="-1.75" font-family="Times New Roman,serif" font-size="10.00">371</text>
</g>
<!-- 0&#45;&#45;371 -->
<g id="edge3" class="edge">
<title>0&#45;&#45;371</title>
<path fill="none" stroke="black" d="M237.82,-65C205.61,-62.18 159.15,-55.65 121.25,-40.5 103.02,-33.21 84.62,-18.63 75.92,-11.2"/>
<text text-anchor="middle" x="124" y="-31" font-family="Times New Roman,serif" font-size="10.00">7</text>
</g>
<!-- 1 -->
<g id="node5" class="node">
<title>1</title>
<text text-anchor="middle" x="97.75" y="-1.75" font-family="Times New Roman,serif" font-size="10.00">1</text>
</g>
<!-- 0&#45;&#45;1 -->
<g id="edge4" class="edge">
<title>0&#45;&#45;1</title>
<path fill="none" stroke="black" d="M237.81,-62.5C212.48,-58.63 179.1,-51.84 151.25,-40.5 129.26,-31.54 106.29,-13.58 99.65,-8.19"/>
<text text-anchor="middle" x="154" y="-31" font-family="Times New Roman,serif" font-size="10.00">0</text>
</g>
<!-- 1053 -->
<g id="node6" class="node">
<title>1053</title>
<text text-anchor="middle" x="126.75" y="-1.75" font-family="Times New Roman,serif" font-size="10.00">1053</text>
</g>
<!-- 0&#45;&#45;1053 -->
<g id="edge5" class="edge">
<title>0&#45;&#45;1053</title>
<path fill="none" stroke="black" d="M238.1,-59.56C219.66,-55.22 197.57,-48.94 178.75,-40.5 160.66,-32.39 141.71,-18.44 132.48,-11.23"/>
<text text-anchor="middle" x="183.25" y="-31" font-family="Times New Roman,serif" font-size="10.00">14</text>
</g>
<!-- 487 -->
<g id="node7" class="node">
<title>487</title>
<text text-anchor="middle" x="160.75" y="-1.75" font-family="Times New Roman,serif" font-size="10.00">487</text>
</g>
<!-- 0&#45;&#45;487 -->
<g id="edge6" class="edge">
<title>0&#45;&#45;487</title>
<path fill="none" stroke="black" d="M250.79,-58.5C237.97,-53.84 222.46,-47.59 209.25,-40.5 192.6,-31.56 174.83,-17.97 166.15,-11.04"/>
<text text-anchor="middle" x="212" y="-31" font-family="Times New Roman,serif" font-size="10.00">9</text>
</g>
<!-- 545 -->
<g id="node8" class="node">
<title>545</title>
<text text-anchor="middle" x="192.75" y="-1.75" font-family="Times New Roman,serif" font-size="10.00">545</text>
</g>
<!-- 0&#45;&#45;545 -->
<g id="edge7" class="edge">
<title>0&#45;&#45;545</title>
<path fill="none" stroke="black" d="M260.07,-58.54C251.1,-53.66 240.02,-47.21 230.75,-40.5 217.58,-30.97 203.71,-17.64 196.95,-10.89"/>
<text text-anchor="middle" x="235.25" y="-31" font-family="Times New Roman,serif" font-size="10.00">10</text>
</g>
<!-- 1183 -->
<g id="node9" class="node">
<title>1183</title>
<text text-anchor="middle" x="226.75" y="-1.75" font-family="Times New Roman,serif" font-size="10.00">1183</text>
</g>
<!-- 0&#45;&#45;1183 -->
<g id="edge8" class="edge">
<title>0&#45;&#45;1183</title>
<path fill="none" stroke="black" d="M268.61,-58.96C263.59,-53.81 257.11,-46.93 251.75,-40.5 243.33,-30.39 234.39,-17.75 229.82,-11.14"/>
<text text-anchor="middle" x="256.25" y="-31" font-family="Times New Roman,serif" font-size="10.00">17</text>
</g>
<!-- 313 -->
<g id="node10" class="node">
<title>313</title>
<text text-anchor="middle" x="260.75" y="-1.75" font-family="Times New Roman,serif" font-size="10.00">313</text>
</g>
<!-- 0&#45;&#45;313 -->
<g id="edge9" class="edge">
<title>0&#45;&#45;313</title>
<path fill="none" stroke="black" d="M272.97,-58.89C270.73,-53.71 267.99,-46.82 266.25,-40.5 263.41,-30.16 261.84,-17.61 261.16,-11.07"/>
<text text-anchor="middle" x="269" y="-31" font-family="Times New Roman,serif" font-size="10.00">6</text>
</g>
<!-- 875 -->
<g id="node11" class="node">
<title>875</title>
<text text-anchor="middle" x="292.75" y="-1.75" font-family="Times New Roman,serif" font-size="10.00">875</text>
</g>
<!-- 0&#45;&#45;875 -->
<g id="edge10" class="edge">
<title>0&#45;&#45;875</title>
<path fill="none" stroke="black" d="M278.97,-58.71C282.41,-45.73 288.89,-21.24 291.55,-11.15"/>
<text text-anchor="middle" x="291.25" y="-31" font-family="Times New Roman,serif" font-size="10.00">13</text>
</g>
<!-- 139 -->
<g id="node12" class="node">
<title>139</title>
<text text-anchor="middle" x="324.75" y="-1.75" font-family="Times New Roman,serif" font-size="10.00">139</text>
</g>
<!-- 0&#45;&#45;139 -->
<g id="edge11" class="edge">
<title>0&#45;&#45;139</title>
<path fill="none" stroke="black" d="M284.17,-58.87C288.76,-53.68 294.72,-46.8 299.75,-40.5 307.96,-30.22 316.99,-17.65 321.62,-11.09"/>
<text text-anchor="middle" x="311" y="-31" font-family="Times New Roman,serif" font-size="10.00">3</text>
</g>
<!-- 709 -->
<g id="node13" class="node">
<title>709</title>
<text text-anchor="middle" x="356.75" y="-1.75" font-family="Times New Roman,serif" font-size="10.00">709</text>
</g>
<!-- 0&#45;&#45;709 -->
<g id="edge12" class="edge">
<title>0&#45;&#45;709</title>
<path fill="none" stroke="black" d="M290.35,-58.63C298.22,-53.58 308.22,-46.92 316.75,-40.5 329.84,-30.65 344.3,-17.91 351.73,-11.21"/>
<text text-anchor="middle" x="335.25" y="-31" font-family="Times New Roman,serif" font-size="10.00">12</text>
</g>
<!-- 197 -->
<g id="node14" class="node">
<title>197</title>
<text text-anchor="middle" x="388.75" y="-1.75" font-family="Times New Roman,serif" font-size="10.00">197</text>
</g>
<!-- 0&#45;&#45;197 -->
<g id="edge13" class="edge">
<title>0&#45;&#45;197</title>
<path fill="none" stroke="black" d="M302.94,-58.56C315.63,-53.95 330.87,-47.73 343.75,-40.5 359.44,-31.69 375.82,-18.04 383.8,-11.07"/>
<text text-anchor="middle" x="363" y="-31" font-family="Times New Roman,serif" font-size="10.00">4</text>
</g>
<!-- 429 -->
<g id="node15" class="node">
<title>429</title>
<text text-anchor="middle" x="420.75" y="-1.75" font-family="Times New Roman,serif" font-size="10.00">429</text>
</g>
<!-- 0&#45;&#45;429 -->
<g id="edge14" class="edge">
<title>0&#45;&#45;429</title>
<path fill="none" stroke="black" d="M315.71,-58.57C332.45,-54.21 351.97,-48.19 368.75,-40.5 386.77,-32.24 405.75,-18.36 415,-11.2"/>
<text text-anchor="middle" x="391" y="-31" font-family="Times New Roman,serif" font-size="10.00">8</text>
</g>
<!-- 1079 -->
<g id="node16" class="node">
<title>1079</title>
<text text-anchor="middle" x="454.75" y="-1.75" font-family="Times New Roman,serif" font-size="10.00">1079</text>
</g>
<!-- 0&#45;&#45;1079 -->
<g id="edge15" class="edge">
<title>0&#45;&#45;1079</title>
<path fill="none" stroke="black" d="M315.75,-61.62C339.67,-57.48 370.62,-50.74 396.75,-40.5 416.94,-32.59 438.41,-18.29 448.64,-11.06"/>
<text text-anchor="middle" x="425.25" y="-31" font-family="Times New Roman,serif" font-size="10.00">16</text>
</g>
<!-- 1066 -->
<g id="node17" class="node">
<title>1066</title>
<text text-anchor="middle" x="490.75" y="-1.75" font-family="Times New Roman,serif" font-size="10.00">1066</text>
</g>
<!-- 0&#45;&#45;1066 -->
<g id="edge16" class="edge">
<title>0&#45;&#45;1066</title>
<path fill="none" stroke="black" d="M315.84,-64.5C348.24,-61.39 395.08,-54.71 433.75,-40.5 453.85,-33.12 474.83,-18.58 484.8,-11.18"/>
<text text-anchor="middle" x="461.25" y="-31" font-family="Times New Roman,serif" font-size="10.00">15</text>
</g>
<!-- 81 -->
<g id="node18" class="node">
<title>81</title>
<text text-anchor="middle" x="522.75" y="-1.75" font-family="Times New Roman,serif" font-size="10.00">81</text>
</g>
<!-- 0&#45;&#45;81 -->
<g id="edge17" class="edge">
<title>0&#45;&#45;81</title>
<path fill="none" stroke="black" d="M315.65,-66.62C355.49,-65 418.65,-59.32 469.75,-40.5 489.63,-33.18 509.82,-17.5 518.43,-10.33"/>
<text text-anchor="middle" x="494" y="-31" font-family="Times New Roman,serif" font-size="10.00">2</text>
</g>
<!-- 13 -->
<g id="node19" class="node">
<title>13</title>
<text text-anchor="middle" x="550.75" y="-1.75" font-family="Times New Roman,serif" font-size="10.00">13</text>
</g>
<!-- 0&#45;&#45;13 -->
<g id="edge18" class="edge">
<title>0&#45;&#45;13</title>
<path fill="none" stroke="black" d="M315.49,-67.87C360.99,-67.54 438.09,-63.19 499.75,-40.5 518.9,-33.45 538.01,-17.92 546.37,-10.6"/>
<text text-anchor="middle" x="523" y="-31" font-family="Times New Roman,serif" font-size="10.00">1</text>
</g>
</g>
</svg>
