<?xml version="1.0" encoding="UTF-8" standalone="no"?>
<!DOCTYPE svg PUBLIC "-//W3C//DTD SVG 1.1//EN"
 "http://www.w3.org/Graphics/SVG/1.1/DTD/svg11.dtd">
<!-- Generated by graphviz version 8.1.0 (20230707.0739)
 -->
<!-- Title: default Pages: 1 -->
<svg width="162pt" height="260pt"
 viewBox="0.00 0.00 162.00 260.00" xmlns="http://www.w3.org/2000/svg" xmlns:xlink="http://www.w3.org/1999/xlink">
<g id="graph0" class="graph" transform="scale(1 1) rotate(0) translate(4 256)">
<title>default</title>
<polygon fill="white" stroke="none" points="-4,4 -4,-256 158,-256 158,4 -4,4"/>
<!-- 6 -->
<g id="node1" class="node">
<title>6</title>
<ellipse fill="green" stroke="green" cx="27" cy="-18" rx="27" ry="18"/>
<text text-anchor="middle" x="27" y="-12.57" font-family="Times New Roman,serif" font-size="14.00">6</text>
</g>
<!-- 3 -->
<g id="node2" class="node">
<title>3</title>
<ellipse fill="red" stroke="red" cx="99" cy="-162" rx="27" ry="18"/>
<text text-anchor="middle" x="99" y="-156.57" font-family="Times New Roman,serif" font-size="14.00">3</text>
</g>
<!-- 5 -->
<g id="node5" class="node">
<title>5</title>
<ellipse fill="blue" stroke="blue" cx="55" cy="-90" rx="27" ry="18"/>
<text text-anchor="middle" x="55" y="-84.58" font-family="Times New Roman,serif" font-size="14.00">5</text>
</g>
<!-- 3&#45;&#45;5 -->
<g id="edge5" class="edge">
<title>3&#45;&#45;5</title>
<path fill="none" stroke="black" d="M89.02,-145.12C81.81,-133.66 72.14,-118.26 64.94,-106.82"/>
</g>
<!-- 4 -->
<g id="node6" class="node">
<title>4</title>
<ellipse fill="green" stroke="green" cx="127" cy="-90" rx="27" ry="18"/>
<text text-anchor="middle" x="127" y="-84.58" font-family="Times New Roman,serif" font-size="14.00">4</text>
</g>
<!-- 3&#45;&#45;4 -->
<g id="edge1" class="edge">
<title>3&#45;&#45;4</title>
<path fill="none" stroke="black" d="M105.64,-144.41C110.1,-133.25 115.96,-118.6 120.41,-107.47"/>
</g>
<!-- 1 -->
<g id="node3" class="node">
<title>1</title>
<ellipse fill="blue" stroke="blue" cx="99" cy="-234" rx="27" ry="18"/>
<text text-anchor="middle" x="99" y="-228.57" font-family="Times New Roman,serif" font-size="14.00">1</text>
</g>
<!-- 1&#45;&#45;3 -->
<g id="edge6" class="edge">
<title>1&#45;&#45;3</title>
<path fill="none" stroke="black" d="M99,-215.7C99,-204.85 99,-190.92 99,-180.1"/>
</g>
<!-- 2 -->
<g id="node4" class="node">
<title>2</title>
<ellipse fill="red" stroke="red" cx="27" cy="-162" rx="27" ry="18"/>
<text text-anchor="middle" x="27" y="-156.57" font-family="Times New Roman,serif" font-size="14.00">2</text>
</g>
<!-- 1&#45;&#45;2 -->
<g id="edge9" class="edge">
<title>1&#45;&#45;2</title>
<path fill="none" stroke="black" d="M84.08,-218.5C71.72,-206.48 54.25,-189.49 41.9,-177.49"/>
</g>
<!-- 1&#45;&#45;4 -->
<g id="edge2" class="edge">
<title>1&#45;&#45;4</title>
<path fill="none" stroke="black" d="M112.75,-218.07C120.96,-208.1 130.62,-194.25 135,-180 142.43,-155.83 137.16,-126.36 132.34,-108.13"/>
</g>
<!-- 2&#45;&#45;6 -->
<g id="edge7" class="edge">
<title>2&#45;&#45;6</title>
<path fill="none" stroke="black" d="M23.75,-143.89C21.95,-133.54 19.91,-120.06 19,-108 17.8,-92.04 17.8,-87.96 19,-72 19.91,-59.94 21.95,-46.46 23.75,-36.11"/>
</g>
<!-- 2&#45;&#45;5 -->
<g id="edge4" class="edge">
<title>2&#45;&#45;5</title>
<path fill="none" stroke="black" d="M33.64,-144.41C38.1,-133.25 43.96,-118.6 48.41,-107.47"/>
</g>
<!-- 2&#45;&#45;4 -->
<g id="edge3" class="edge">
<title>2&#45;&#45;4</title>
<path fill="none" stroke="black" d="M44.88,-148.49C62.97,-135.82 90.78,-116.35 108.94,-103.64"/>
</g>
<!-- 5&#45;&#45;6 -->
<g id="edge8" class="edge">
<title>5&#45;&#45;6</title>
<path fill="none" stroke="black" d="M48.36,-72.41C43.9,-61.25 38.04,-46.6 33.59,-35.47"/>
</g>
</g>
</svg>
